<svg viewBox="0 0 640 400" data-background-color="#ffffff" preserveAspectRatio="xMidYMid meet" height="400" width="640" xmlns="http://www.w3.org/2000/svg" xmlns:xlink="http://www.w3.org/1999/xlink"><rect width="640" height="400" x="0" y="0" opacity="1" fill="#ffffff" data-fill-palette-color="background" id="background"></rect><g id="tight-bounds" transform="matrix(1,0,0,1,163.53765,171.0378)"><svg viewBox="0 0 312.9247 57.924400000000006" height="57.924400000000006" width="312.9247"><g><svg viewBox="0 0 312.9247 57.924400000000006" height="57.924400000000006" width="312.9247"><g><svg viewBox="0 0 312.9247 57.924400000000006" height="57.924400000000006" width="312.9247"><g><svg viewBox="0 0 312.9247 57.924400000000006" height="57.924400000000006" width="312.9247"><g><svg viewBox="0 0 312.9247 57.924400000000006" height="57.924400000000006" width="312.9247"><g><svg><g></g><g></g></svg></g><g><svg><g></g><g><svg></svg></g></svg></g><g id="text-0"><svg viewBox="0 0 312.9247 57.924400000000006" height="57.924400000000006" width="312.9247"><g><svg xmlns="http://www.w3.org/2000/svg" xmlns:xlink="http://www.w3.org/1999/xlink" xml:space="preserve" version="1.1" style="shape-rendering:geometricPrecision;text-rendering:geometricPrecision;image-rendering:optimizeQuality;" viewBox="57 57 219.40359497070312 219.40359497070312" x="0" y="0" fill-rule="evenodd" clip-rule="evenodd" height="57.924400000000006" width="57.924400000000006" class="icon-x-0" data-fill-palette-color="accent" id="x-0"><g fill="#4a596d" data-fill-palette-color="accent"><g fill="#4a596d" data-fill-palette-color="accent"><rect class="" x="57" y="224" width="52.4036" height="52.4036" fill="#4a596d" data-fill-palette-color="accent"></rect><rect class="" x="113" y="168" width="52.4036" height="52.4036" fill="#4a596d" data-fill-palette-color="accent"></rect><rect class="" x="113" y="224" width="52.4036" height="52.4036" fill="#4a596d" data-fill-palette-color="accent"></rect><rect class="" x="168" y="113" width="52.4036" height="52.4036" fill="#4a596d" data-fill-palette-color="accent"></rect><rect class="" x="168" y="168" width="52.4036" height="52.4036" fill="#4a596d" data-fill-palette-color="accent"></rect><rect class="" x="168" y="224" width="52.4036" height="52.4036" fill="#4a596d" data-fill-palette-color="accent"></rect><rect class="" x="224" y="57" width="52.4036" height="52.4036" fill="#4a596d" data-fill-palette-color="accent"></rect><rect class="" x="224" y="113" width="52.4036" height="52.4036" fill="#4a596d" data-fill-palette-color="accent"></rect><rect class="" x="224" y="168" width="52.4036" height="52.4036" fill="#4a596d" data-fill-palette-color="accent"></rect><rect class="" x="224" y="224" width="52.4036" height="52.4036" fill="#4a596d" data-fill-palette-color="accent"></rect></g></g></svg></g><g transform="matrix(1,0,0,1,71.60000000000001,0)"><svg width="241.32469999999998" viewBox="0 -35.79999923706055 149.13999938964844 35.79999923706055" height="57.924400000000006" data-palette-color="#4a596d"><path d="M26.7-2.15L31.55-2.15 31.55 0 0 0 0-2.15 4.85-2.15 4.85-34.95 10.75-34.95 10.75-5.6 26.7-5.6 26.7-2.15ZM57.85-2.15L69.3-2.15 69.3 0 27.3 0 27.3-2.15 38.75-2.15Q34.65-4.5 32.27-8.6 29.9-12.7 29.9-17.75L29.9-17.75Q29.9-25.45 35.2-30.63 40.5-35.8 48.3-35.8 56.1-35.8 61.4-30.63 66.7-25.45 66.7-17.75L66.7-17.75Q66.7-12.75 64.32-8.6 61.95-4.45 57.85-2.15L57.85-2.15ZM57.07-26.7Q53.5-30.4 48.3-30.4 43.1-30.4 39.52-26.7 35.95-23 35.95-17.73 35.95-12.45 39.52-8.75 43.1-5.05 48.3-5.05 53.5-5.05 57.07-8.75 60.65-12.45 60.65-17.73 60.65-23 57.07-26.7ZM99.75-2.15L107.15-2.15 107.15 0 69.3 0 69.3-2.15 81.4-2.15Q77.05-4.35 74.47-8.6 71.89-12.85 71.89-18.2L71.89-18.2Q71.89-25.85 77.2-30.83 82.5-35.8 90.07-35.8 97.65-35.8 102.65-31.4L102.65-31.4 99.5-26.9Q97.45-28.65 95.37-29.33 93.3-30 90.55-30L90.55-30Q85.2-30 81.62-26.8 78.05-23.6 78.05-18.05 78.05-12.5 81.55-9.13 85.05-5.75 90.02-5.75 95-5.75 98.34-7.9L98.34-7.9 98.34-17.5 104.25-17.5 104.25-5.55Q102.4-3.5 99.75-2.15L99.75-2.15ZM137.69-2.15L149.14-2.15 149.14 0 107.14 0 107.14-2.15 118.59-2.15Q114.49-4.5 112.12-8.6 109.74-12.7 109.74-17.75L109.74-17.75Q109.74-25.45 115.04-30.63 120.34-35.8 128.14-35.8 135.94-35.8 141.24-30.63 146.54-25.45 146.54-17.75L146.54-17.75Q146.54-12.75 144.17-8.6 141.79-4.45 137.69-2.15L137.69-2.15ZM136.92-26.7Q133.34-30.4 128.14-30.4 122.94-30.4 119.37-26.7 115.79-23 115.79-17.73 115.79-12.45 119.37-8.75 122.94-5.05 128.14-5.05 133.34-5.05 136.92-8.75 140.49-12.45 140.49-17.73 140.49-23 136.92-26.7Z" opacity="1" transform="matrix(1,0,0,1,0,0)" fill="#4a596d" class="undefined-text-0" data-fill-palette-color="primary"></path></svg></g></svg></g></svg></g></svg></g></svg></g></svg></g></svg><rect width="312.9247" height="57.924400000000006" fill="none" stroke="none" visibility="hidden"></rect></g><defs></defs></svg>